<svg xmlns="http://www.w3.org/2000/svg" width="104.793" height="55.611" viewBox="0 0 104.793 55.611">
  <g id="Grupo_6" data-name="Grupo 6" transform="translate(-1641.922 -1916.497)">
    <path id="Icon_ionic-ios-arrow-back" data-name="Icon ionic-ios-arrow-back" d="M20.835,33.992,41.876,12.967a3.974,3.974,0,0,0-5.629-5.612L12.408,31.177a3.966,3.966,0,0,0-.116,5.48L36.231,60.645a3.974,3.974,0,1,0,5.629-5.612Z" transform="translate(1630.671 1910.303)" fill="#f1ece9"/>
    <path id="Icon_ionic-ios-arrow-back-2" data-name="Icon ionic-ios-arrow-back" d="M20.835,33.992,41.876,12.967a3.974,3.974,0,0,0-5.629-5.612L12.408,31.177a3.966,3.966,0,0,0-.116,5.48L36.231,60.645a3.974,3.974,0,1,0,5.629-5.612Z" transform="translate(1757.965 1978.301) rotate(180)" fill="#f1ece9"/>
  </g>
</svg>
